# xmcd
#
# Track frame offsets: 
#        150
#        22523
#        34300
#        44818
#        52917
#        65018
#        83725
#        100860
#        111310
#        128407
#        140917
#        150261
#        165258
#        186124
#        206821
#        219258
#        227900
#        244888
#        259648
#        267972
#        283481
#
# Disc length: 3972 seconds
#
# Revision: 0
# Processed by: cddbd v1.5.2PL0 Copyright (c) Steve Scherf et al.
# Submitted via: ExactAudioCopyFreeDBPlugin 1.0
#
DISCID=2b0f8215
DTITLE=Galdino - Galdino
DYEAR=2013
DGENRE=National Folk
TTITLE0=Avohai
TTITLE1=A prosa impurpura do caicó
TTITLE2=Cara de indio
TTITLE3=Carta ao tom 74
TTITLE4=Qualquer coisa
TTITLE5=O quue será
TTITLE6=Tesoura do desejo
TTITLE7=Discussao
TTITLE8=Divina comédia humana
TTITLE9=Panela
TTITLE10=Fita amarela
TTITLE11=Incompactibilidade de Gênios
TTITLE12=Ser do sertao
TTITLE13=Leao do norte
TTITLE14=Maca no rosto
TTITLE15=O samba e o tango
TTITLE16=Outano
TTITLE17=Resposta ao tempo
TTITLE18=Mas pra que
TTITLE19=Vila do sossego
TTITLE20=Você e eu
EXTD=
EXTT0=
EXTT1=
EXTT2=
EXTT3=
EXTT4=
EXTT5=
EXTT6=
EXTT7=
EXTT8=
EXTT9=
EXTT10=
EXTT11=
EXTT12=
EXTT13=
EXTT14=
EXTT15=
EXTT16=
EXTT17=
EXTT18=
EXTT19=
EXTT20=
PLAYORDER=
